<mxfile host="app.diagrams.net" agent="Mozilla/5.0 (Windows NT 10.0; Win64; x64; rv:130.0) Gecko/20100101 Firefox/130.0" version="24.7.17">
  <diagram name="Page-1" id="yDNp3_H05tU09x6k8G_g">
    <mxGraphModel dx="2269" dy="920" grid="1" gridSize="10" guides="1" tooltips="1" connect="1" arrows="1" fold="1" page="1" pageScale="1" pageWidth="291" pageHeight="413" math="0" shadow="0">
      <root>
        <mxCell id="0" />
        <mxCell id="1" parent="0" />
        <mxCell id="nldGlC8cXpmi4bbyJ1qI-2" value="Termék" style="rounded=0;whiteSpace=wrap;html=1;fillColor=#dae8fc;strokeColor=#6c8ebf;" parent="1" vertex="1">
          <mxGeometry x="120" y="240" width="160" height="80" as="geometry" />
        </mxCell>
        <mxCell id="nldGlC8cXpmi4bbyJ1qI-3" value="Gyártó" style="rounded=0;whiteSpace=wrap;html=1;fillColor=#dae8fc;strokeColor=#6c8ebf;" parent="1" vertex="1">
          <mxGeometry x="580" y="240" width="160" height="80" as="geometry" />
        </mxCell>
        <mxCell id="nldGlC8cXpmi4bbyJ1qI-4" value="&lt;div&gt;T-GY&lt;/div&gt;" style="rhombus;whiteSpace=wrap;html=1;fillColor=#f8cecc;strokeColor=#b85450;" parent="1" vertex="1">
          <mxGeometry x="390" y="240" width="110" height="80" as="geometry" />
        </mxCell>
        <mxCell id="nldGlC8cXpmi4bbyJ1qI-6" value="" style="endArrow=classic;html=1;rounded=0;exitX=1;exitY=0.5;exitDx=0;exitDy=0;entryX=0;entryY=0.5;entryDx=0;entryDy=0;" parent="1" source="nldGlC8cXpmi4bbyJ1qI-4" target="nldGlC8cXpmi4bbyJ1qI-3" edge="1">
          <mxGeometry width="50" height="50" relative="1" as="geometry">
            <mxPoint x="470" y="290" as="sourcePoint" />
            <mxPoint x="520" y="240" as="targetPoint" />
          </mxGeometry>
        </mxCell>
        <mxCell id="nldGlC8cXpmi4bbyJ1qI-14" value="&lt;u&gt;tkód&lt;/u&gt;" style="ellipse;whiteSpace=wrap;html=1;fillColor=#fff2cc;strokeColor=#d6b656;" parent="1" vertex="1">
          <mxGeometry y="420" width="120" height="60" as="geometry" />
        </mxCell>
        <mxCell id="nldGlC8cXpmi4bbyJ1qI-16" value="ear" style="ellipse;whiteSpace=wrap;html=1;fillColor=#fff2cc;strokeColor=#d6b656;" parent="1" vertex="1">
          <mxGeometry x="140" y="420" width="120" height="60" as="geometry" />
        </mxCell>
        <mxCell id="nldGlC8cXpmi4bbyJ1qI-17" value="név" style="ellipse;whiteSpace=wrap;html=1;fillColor=#fff2cc;strokeColor=#d6b656;" parent="1" vertex="1">
          <mxGeometry x="291" y="420" width="120" height="60" as="geometry" />
        </mxCell>
        <mxCell id="nldGlC8cXpmi4bbyJ1qI-21" value="" style="endArrow=none;html=1;rounded=0;entryX=0.5;entryY=1;entryDx=0;entryDy=0;exitX=0.5;exitY=0;exitDx=0;exitDy=0;" parent="1" source="nldGlC8cXpmi4bbyJ1qI-16" target="nldGlC8cXpmi4bbyJ1qI-2" edge="1">
          <mxGeometry width="50" height="50" relative="1" as="geometry">
            <mxPoint x="210" y="360" as="sourcePoint" />
            <mxPoint x="290" y="310" as="targetPoint" />
          </mxGeometry>
        </mxCell>
        <mxCell id="nldGlC8cXpmi4bbyJ1qI-22" value="" style="endArrow=none;html=1;rounded=0;entryX=0;entryY=1;entryDx=0;entryDy=0;exitX=0.583;exitY=-0.017;exitDx=0;exitDy=0;exitPerimeter=0;" parent="1" source="nldGlC8cXpmi4bbyJ1qI-14" target="nldGlC8cXpmi4bbyJ1qI-2" edge="1">
          <mxGeometry width="50" height="50" relative="1" as="geometry">
            <mxPoint x="82.96000000000001" y="360" as="sourcePoint" />
            <mxPoint x="139.99999999999997" y="271.03999999999996" as="targetPoint" />
          </mxGeometry>
        </mxCell>
        <mxCell id="nldGlC8cXpmi4bbyJ1qI-23" value="" style="endArrow=none;html=1;rounded=0;exitX=0.5;exitY=0;exitDx=0;exitDy=0;entryX=1;entryY=1;entryDx=0;entryDy=0;" parent="1" source="nldGlC8cXpmi4bbyJ1qI-17" target="nldGlC8cXpmi4bbyJ1qI-2" edge="1">
          <mxGeometry width="50" height="50" relative="1" as="geometry">
            <mxPoint x="375" y="360" as="sourcePoint" />
            <mxPoint x="320" y="280" as="targetPoint" />
          </mxGeometry>
        </mxCell>
        <mxCell id="nldGlC8cXpmi4bbyJ1qI-24" value="név" style="ellipse;whiteSpace=wrap;html=1;fillColor=#fff2cc;strokeColor=#d6b656;" parent="1" vertex="1">
          <mxGeometry x="600" y="420" width="120" height="60" as="geometry" />
        </mxCell>
        <mxCell id="nldGlC8cXpmi4bbyJ1qI-25" value="&lt;u&gt;adószám&lt;/u&gt;" style="ellipse;whiteSpace=wrap;html=1;fillColor=#fff2cc;strokeColor=#d6b656;" parent="1" vertex="1">
          <mxGeometry x="460" y="420" width="120" height="60" as="geometry" />
        </mxCell>
        <mxCell id="nldGlC8cXpmi4bbyJ1qI-26" value="&lt;div&gt;telephely&lt;/div&gt;" style="ellipse;whiteSpace=wrap;html=1;fillColor=#fff2cc;strokeColor=#d6b656;" parent="1" vertex="1">
          <mxGeometry x="730" y="420" width="120" height="60" as="geometry" />
        </mxCell>
        <mxCell id="nldGlC8cXpmi4bbyJ1qI-28" value="" style="endArrow=doubleBlock;html=1;rounded=0;exitX=0;exitY=0.5;exitDx=0;exitDy=0;entryX=1;entryY=0.5;entryDx=0;entryDy=0;horizontal=1;endFill=1;" parent="1" source="nldGlC8cXpmi4bbyJ1qI-4" target="nldGlC8cXpmi4bbyJ1qI-2" edge="1">
          <mxGeometry width="50" height="50" relative="1" as="geometry">
            <mxPoint x="310" y="260" as="sourcePoint" />
            <mxPoint x="360" y="210" as="targetPoint" />
            <Array as="points" />
          </mxGeometry>
        </mxCell>
        <mxCell id="nldGlC8cXpmi4bbyJ1qI-31" value="" style="endArrow=none;html=1;rounded=0;exitX=0.5;exitY=0;exitDx=0;exitDy=0;" parent="1" source="nldGlC8cXpmi4bbyJ1qI-26" edge="1">
          <mxGeometry width="50" height="50" relative="1" as="geometry">
            <mxPoint x="770" y="360" as="sourcePoint" />
            <mxPoint x="730" y="320" as="targetPoint" />
          </mxGeometry>
        </mxCell>
        <mxCell id="UPvdw3e7h64lrov7qc0o-1" value="utca" style="ellipse;whiteSpace=wrap;html=1;fillColor=#fff2cc;strokeColor=#d6b656;" parent="1" vertex="1">
          <mxGeometry x="710" y="20" width="90" height="40" as="geometry" />
        </mxCell>
        <mxCell id="UPvdw3e7h64lrov7qc0o-2" value="p_cím" style="ellipse;whiteSpace=wrap;html=1;fillColor=#fff2cc;strokeColor=#d6b656;" parent="1" vertex="1">
          <mxGeometry x="615" y="90" width="90" height="40" as="geometry" />
        </mxCell>
        <mxCell id="UPvdw3e7h64lrov7qc0o-3" value="h_szám" style="ellipse;whiteSpace=wrap;html=1;fillColor=#fff2cc;strokeColor=#d6b656;" parent="1" vertex="1">
          <mxGeometry x="605" y="20" width="90" height="40" as="geometry" />
        </mxCell>
        <mxCell id="UPvdw3e7h64lrov7qc0o-4" value="i_szám" style="ellipse;whiteSpace=wrap;html=1;fillColor=#fff2cc;strokeColor=#d6b656;" parent="1" vertex="1">
          <mxGeometry x="500" y="20" width="90" height="40" as="geometry" />
        </mxCell>
        <mxCell id="UPvdw3e7h64lrov7qc0o-6" value="" style="endArrow=none;html=1;rounded=0;exitX=0.5;exitY=0;exitDx=0;exitDy=0;" parent="1" source="nldGlC8cXpmi4bbyJ1qI-3" edge="1">
          <mxGeometry width="50" height="50" relative="1" as="geometry">
            <mxPoint x="630" y="190" as="sourcePoint" />
            <mxPoint x="660" y="130" as="targetPoint" />
            <Array as="points">
              <mxPoint x="660" y="160" />
            </Array>
          </mxGeometry>
        </mxCell>
        <mxCell id="UPvdw3e7h64lrov7qc0o-7" value="" style="endArrow=none;html=1;rounded=0;exitX=1;exitY=0;exitDx=0;exitDy=0;" parent="1" source="UPvdw3e7h64lrov7qc0o-2" edge="1">
          <mxGeometry width="50" height="50" relative="1" as="geometry">
            <mxPoint x="690" y="100" as="sourcePoint" />
            <mxPoint x="740" y="60" as="targetPoint" />
            <Array as="points">
              <mxPoint x="700" y="90" />
              <mxPoint x="745" y="60" />
            </Array>
          </mxGeometry>
        </mxCell>
        <mxCell id="UPvdw3e7h64lrov7qc0o-8" value="" style="endArrow=none;html=1;rounded=0;exitX=0.433;exitY=0;exitDx=0;exitDy=0;exitPerimeter=0;" parent="1" source="UPvdw3e7h64lrov7qc0o-2" edge="1">
          <mxGeometry width="50" height="50" relative="1" as="geometry">
            <mxPoint x="615" y="110" as="sourcePoint" />
            <mxPoint x="665" y="60" as="targetPoint" />
            <Array as="points">
              <mxPoint x="655" y="70" />
              <mxPoint x="655" y="60" />
            </Array>
          </mxGeometry>
        </mxCell>
        <mxCell id="UPvdw3e7h64lrov7qc0o-9" value="" style="endArrow=none;html=1;rounded=0;exitX=0.078;exitY=0.25;exitDx=0;exitDy=0;exitPerimeter=0;" parent="1" source="UPvdw3e7h64lrov7qc0o-2" edge="1">
          <mxGeometry width="50" height="50" relative="1" as="geometry">
            <mxPoint x="510" y="110" as="sourcePoint" />
            <mxPoint x="560" y="60" as="targetPoint" />
          </mxGeometry>
        </mxCell>
        <mxCell id="UPvdw3e7h64lrov7qc0o-15" value="&lt;div&gt;alkatrész&lt;/div&gt;" style="rounded=0;whiteSpace=wrap;html=1;fillColor=#dae8fc;strokeColor=#6c8ebf;" parent="1" vertex="1">
          <mxGeometry x="130" y="10" width="140" height="60" as="geometry" />
        </mxCell>
        <mxCell id="UPvdw3e7h64lrov7qc0o-16" value="&lt;div&gt;T-A&lt;/div&gt;" style="rhombus;whiteSpace=wrap;html=1;fillColor=#f8cecc;strokeColor=#b85450;" parent="1" vertex="1">
          <mxGeometry x="170" y="120" width="60" height="70" as="geometry" />
        </mxCell>
        <mxCell id="UPvdw3e7h64lrov7qc0o-19" value="" style="endArrow=none;html=1;rounded=0;entryX=0.5;entryY=1;entryDx=0;entryDy=0;exitX=0.5;exitY=0;exitDx=0;exitDy=0;" parent="1" target="nldGlC8cXpmi4bbyJ1qI-3" edge="1" source="nldGlC8cXpmi4bbyJ1qI-24">
          <mxGeometry width="50" height="50" relative="1" as="geometry">
            <mxPoint x="616" y="428.96" as="sourcePoint" />
            <mxPoint x="710" y="329.99999999999994" as="targetPoint" />
          </mxGeometry>
        </mxCell>
        <mxCell id="UPvdw3e7h64lrov7qc0o-21" value="" style="endArrow=doubleBlock;html=1;rounded=0;entryX=0.5;entryY=1;entryDx=0;entryDy=0;endFill=1;exitX=0.5;exitY=0;exitDx=0;exitDy=0;" parent="1" source="UPvdw3e7h64lrov7qc0o-16" target="UPvdw3e7h64lrov7qc0o-15" edge="1">
          <mxGeometry width="50" height="50" relative="1" as="geometry">
            <mxPoint x="200" y="120" as="sourcePoint" />
            <mxPoint x="250" y="70" as="targetPoint" />
          </mxGeometry>
        </mxCell>
        <mxCell id="UPvdw3e7h64lrov7qc0o-23" value="név" style="ellipse;whiteSpace=wrap;html=1;fillColor=#fff2cc;strokeColor=#d6b656;" parent="1" vertex="1">
          <mxGeometry x="320" y="80" width="90" height="40" as="geometry" />
        </mxCell>
        <mxCell id="UPvdw3e7h64lrov7qc0o-24" value="i_kód" style="ellipse;whiteSpace=wrap;html=1;fillColor=#fff2cc;strokeColor=#d6b656;" parent="1" vertex="1">
          <mxGeometry x="320" y="10" width="90" height="40" as="geometry" />
        </mxCell>
        <mxCell id="UPvdw3e7h64lrov7qc0o-25" value="" style="endArrow=none;html=1;rounded=0;entryX=0.033;entryY=0.675;entryDx=0;entryDy=0;entryPerimeter=0;exitX=1;exitY=0.5;exitDx=0;exitDy=0;" parent="1" source="UPvdw3e7h64lrov7qc0o-15" target="UPvdw3e7h64lrov7qc0o-24" edge="1">
          <mxGeometry width="50" height="50" relative="1" as="geometry">
            <mxPoint x="270" y="50" as="sourcePoint" />
            <mxPoint x="320" as="targetPoint" />
          </mxGeometry>
        </mxCell>
        <mxCell id="UPvdw3e7h64lrov7qc0o-26" value="" style="endArrow=none;html=1;rounded=0;entryX=0;entryY=0.35;entryDx=0;entryDy=0;entryPerimeter=0;exitX=1;exitY=1;exitDx=0;exitDy=0;exitPerimeter=0;" parent="1" source="UPvdw3e7h64lrov7qc0o-15" target="UPvdw3e7h64lrov7qc0o-23" edge="1">
          <mxGeometry width="50" height="50" relative="1" as="geometry">
            <mxPoint x="270" y="70" as="sourcePoint" />
            <mxPoint x="320" y="20" as="targetPoint" />
          </mxGeometry>
        </mxCell>
        <mxCell id="UPvdw3e7h64lrov7qc0o-29" value="" style="endArrow=doubleBlock;html=1;rounded=0;entryX=0.5;entryY=0;entryDx=0;entryDy=0;endFill=1;" parent="1" target="nldGlC8cXpmi4bbyJ1qI-2" edge="1">
          <mxGeometry width="50" height="50" relative="1" as="geometry">
            <mxPoint x="200" y="190" as="sourcePoint" />
            <mxPoint x="250" y="140" as="targetPoint" />
          </mxGeometry>
        </mxCell>
        <mxCell id="UPvdw3e7h64lrov7qc0o-31" value="csomag db" style="ellipse;whiteSpace=wrap;html=1;fillColor=#fff2cc;strokeColor=#d6b656;" parent="1" vertex="1">
          <mxGeometry x="-95" y="363" width="120" height="60" as="geometry" />
        </mxCell>
        <mxCell id="UPvdw3e7h64lrov7qc0o-32" value="csomag db" style="ellipse;whiteSpace=wrap;html=1;fillColor=#fff2cc;strokeColor=#000000;" parent="1" vertex="1">
          <mxGeometry x="-90" y="373" width="110" height="40" as="geometry" />
        </mxCell>
        <mxCell id="BkT9WXvA0BQwRsPOMuYa-4" value="T-R" style="rhombus;whiteSpace=wrap;html=1;fillColor=#f8cecc;strokeColor=#b85450;" vertex="1" parent="1">
          <mxGeometry x="-80" y="240" width="110" height="80" as="geometry" />
        </mxCell>
        <mxCell id="BkT9WXvA0BQwRsPOMuYa-6" value="Rendelés" style="rounded=0;whiteSpace=wrap;html=1;fillColor=#dae8fc;strokeColor=#6c8ebf;" vertex="1" parent="1">
          <mxGeometry x="-380" y="240" width="160" height="80" as="geometry" />
        </mxCell>
        <mxCell id="BkT9WXvA0BQwRsPOMuYa-7" value="&lt;u&gt;rkód&lt;/u&gt;" style="ellipse;whiteSpace=wrap;html=1;fillColor=#fff2cc;strokeColor=#d6b656;" vertex="1" parent="1">
          <mxGeometry x="-582" y="420" width="120" height="60" as="geometry" />
        </mxCell>
        <mxCell id="BkT9WXvA0BQwRsPOMuYa-9" value="" style="endArrow=classic;html=1;rounded=0;entryX=0;entryY=1;entryDx=0;entryDy=0;exitX=0.697;exitY=-0.02;exitDx=0;exitDy=0;exitPerimeter=0;" edge="1" parent="1" source="BkT9WXvA0BQwRsPOMuYa-7" target="BkT9WXvA0BQwRsPOMuYa-6">
          <mxGeometry width="50" height="50" relative="1" as="geometry">
            <mxPoint x="-341" y="420" as="sourcePoint" />
            <mxPoint x="-291" y="370" as="targetPoint" />
          </mxGeometry>
        </mxCell>
        <mxCell id="BkT9WXvA0BQwRsPOMuYa-10" value="dátum" style="ellipse;whiteSpace=wrap;html=1;fillColor=#fff2cc;strokeColor=#d6b656;" vertex="1" parent="1">
          <mxGeometry x="-320" y="420" width="120" height="60" as="geometry" />
        </mxCell>
        <mxCell id="BkT9WXvA0BQwRsPOMuYa-11" value="db" style="ellipse;whiteSpace=wrap;html=1;fillColor=#fff2cc;strokeColor=#d6b656;" vertex="1" parent="1">
          <mxGeometry x="-190" y="420" width="120" height="60" as="geometry" />
        </mxCell>
        <mxCell id="BkT9WXvA0BQwRsPOMuYa-12" value="" style="endArrow=none;html=1;rounded=0;entryX=0.194;entryY=0.988;entryDx=0;entryDy=0;entryPerimeter=0;" edge="1" parent="1" target="nldGlC8cXpmi4bbyJ1qI-3">
          <mxGeometry width="50" height="50" relative="1" as="geometry">
            <mxPoint x="530" y="420" as="sourcePoint" />
            <mxPoint x="580" y="370" as="targetPoint" />
          </mxGeometry>
        </mxCell>
        <mxCell id="BkT9WXvA0BQwRsPOMuYa-13" value="" style="endArrow=none;html=1;rounded=0;entryX=0.75;entryY=1;entryDx=0;entryDy=0;exitX=0.5;exitY=0;exitDx=0;exitDy=0;" edge="1" parent="1" source="BkT9WXvA0BQwRsPOMuYa-10" target="BkT9WXvA0BQwRsPOMuYa-6">
          <mxGeometry width="50" height="50" relative="1" as="geometry">
            <mxPoint x="-230" y="420" as="sourcePoint" />
            <mxPoint x="-180" y="370" as="targetPoint" />
          </mxGeometry>
        </mxCell>
        <mxCell id="BkT9WXvA0BQwRsPOMuYa-14" value="" style="endArrow=none;html=1;rounded=0;exitX=0.425;exitY=0;exitDx=0;exitDy=0;exitPerimeter=0;entryX=1;entryY=1;entryDx=0;entryDy=0;" edge="1" parent="1" source="BkT9WXvA0BQwRsPOMuYa-11" target="BkT9WXvA0BQwRsPOMuYa-6">
          <mxGeometry width="50" height="50" relative="1" as="geometry">
            <mxPoint x="-200" y="370" as="sourcePoint" />
            <mxPoint x="-150" y="320" as="targetPoint" />
          </mxGeometry>
        </mxCell>
        <mxCell id="BkT9WXvA0BQwRsPOMuYa-15" value="" style="endArrow=doubleBlock;html=1;rounded=0;endFill=1;entryX=0;entryY=0.5;entryDx=0;entryDy=0;" edge="1" parent="1" target="nldGlC8cXpmi4bbyJ1qI-2">
          <mxGeometry width="50" height="50" relative="1" as="geometry">
            <mxPoint x="30" y="280" as="sourcePoint" />
            <mxPoint x="70" y="230" as="targetPoint" />
          </mxGeometry>
        </mxCell>
        <mxCell id="BkT9WXvA0BQwRsPOMuYa-17" value="" style="endArrow=doubleBlock;html=1;rounded=0;entryX=1;entryY=0.5;entryDx=0;entryDy=0;exitX=0;exitY=0.5;exitDx=0;exitDy=0;endFill=1;" edge="1" parent="1" source="BkT9WXvA0BQwRsPOMuYa-4" target="BkT9WXvA0BQwRsPOMuYa-6">
          <mxGeometry width="50" height="50" relative="1" as="geometry">
            <mxPoint x="-90" y="290" as="sourcePoint" />
            <mxPoint x="-40" y="240" as="targetPoint" />
            <Array as="points" />
          </mxGeometry>
        </mxCell>
        <mxCell id="BkT9WXvA0BQwRsPOMuYa-18" value="" style="endArrow=none;html=1;rounded=0;" edge="1" parent="1">
          <mxGeometry width="50" height="50" relative="1" as="geometry">
            <mxPoint x="20" y="380" as="sourcePoint" />
            <mxPoint x="124" y="313" as="targetPoint" />
          </mxGeometry>
        </mxCell>
        <mxCell id="BkT9WXvA0BQwRsPOMuYa-20" value="ár" style="ellipse;whiteSpace=wrap;html=1;fillColor=#fff2cc;strokeColor=#d6b656;dashed=1;dashPattern=12 12;" vertex="1" parent="1">
          <mxGeometry x="-450" y="420" width="120" height="60" as="geometry" />
        </mxCell>
        <mxCell id="BkT9WXvA0BQwRsPOMuYa-21" value="" style="endArrow=none;html=1;rounded=0;entryX=0.25;entryY=1;entryDx=0;entryDy=0;" edge="1" parent="1" target="BkT9WXvA0BQwRsPOMuYa-6">
          <mxGeometry width="50" height="50" relative="1" as="geometry">
            <mxPoint x="-390" y="420" as="sourcePoint" />
            <mxPoint x="-340" y="370" as="targetPoint" />
          </mxGeometry>
        </mxCell>
        <mxCell id="BkT9WXvA0BQwRsPOMuYa-22" value="Vevő" style="rounded=0;whiteSpace=wrap;html=1;fillColor=#dae8fc;strokeColor=#6c8ebf;" vertex="1" parent="1">
          <mxGeometry x="-380" width="160" height="80" as="geometry" />
        </mxCell>
        <mxCell id="BkT9WXvA0BQwRsPOMuYa-23" value="R-V" style="rhombus;whiteSpace=wrap;html=1;fillColor=#f8cecc;strokeColor=#b85450;" vertex="1" parent="1">
          <mxGeometry x="-347.5" y="130" width="95" height="63" as="geometry" />
        </mxCell>
        <mxCell id="BkT9WXvA0BQwRsPOMuYa-28" value="" style="endArrow=classic;html=1;rounded=0;exitX=0.5;exitY=0;exitDx=0;exitDy=0;" edge="1" parent="1" source="BkT9WXvA0BQwRsPOMuYa-6">
          <mxGeometry width="50" height="50" relative="1" as="geometry">
            <mxPoint x="-310" y="240" as="sourcePoint" />
            <mxPoint x="-300" y="190" as="targetPoint" />
          </mxGeometry>
        </mxCell>
        <mxCell id="BkT9WXvA0BQwRsPOMuYa-29" value="" style="endArrow=doubleBlock;html=1;rounded=0;endFill=1;" edge="1" parent="1" target="BkT9WXvA0BQwRsPOMuYa-23">
          <mxGeometry width="50" height="50" relative="1" as="geometry">
            <mxPoint x="-302.5" y="80" as="sourcePoint" />
            <mxPoint x="-252.5" y="30" as="targetPoint" />
          </mxGeometry>
        </mxCell>
        <mxCell id="BkT9WXvA0BQwRsPOMuYa-30" value="&lt;div&gt;&lt;u&gt;v_kód&lt;/u&gt;&lt;/div&gt;" style="ellipse;whiteSpace=wrap;html=1;fillColor=#fff2cc;strokeColor=#d6b656;" vertex="1" parent="1">
          <mxGeometry x="-582" y="10" width="120" height="60" as="geometry" />
        </mxCell>
        <mxCell id="BkT9WXvA0BQwRsPOMuYa-31" value="" style="endArrow=none;html=1;rounded=0;exitX=1;exitY=0.5;exitDx=0;exitDy=0;" edge="1" parent="1" source="BkT9WXvA0BQwRsPOMuYa-30">
          <mxGeometry width="50" height="50" relative="1" as="geometry">
            <mxPoint x="-430" y="90" as="sourcePoint" />
            <mxPoint x="-380" y="40" as="targetPoint" />
          </mxGeometry>
        </mxCell>
        <mxCell id="BkT9WXvA0BQwRsPOMuYa-32" value="név" style="ellipse;whiteSpace=wrap;html=1;fillColor=#fff2cc;strokeColor=#d6b656;" vertex="1" parent="1">
          <mxGeometry x="-582" y="100" width="120" height="60" as="geometry" />
        </mxCell>
        <mxCell id="BkT9WXvA0BQwRsPOMuYa-33" value="" style="endArrow=none;html=1;rounded=0;entryX=0;entryY=1;entryDx=0;entryDy=0;" edge="1" parent="1" target="BkT9WXvA0BQwRsPOMuYa-22">
          <mxGeometry width="50" height="50" relative="1" as="geometry">
            <mxPoint x="-462" y="130" as="sourcePoint" />
            <mxPoint x="-412" y="80" as="targetPoint" />
          </mxGeometry>
        </mxCell>
      </root>
    </mxGraphModel>
  </diagram>
</mxfile>
